PathFileType	4	(X/Y/Z)	s10c0203.trc
DataRate	CameraRate	NumFrames	NumMarkers	Units	OrigDataRate	OrigDataStartFrame	OrigNumFrames
200	200	4	49	mm	200	1500	2000
Frame#	Time	racr			lacr			c7			jug			rlel			rdr			llel			ldr			s2			lic			ric			lasi			rasi			rpsi			lpsi			rgt			lgt			rth1			rth2			rth3			rth4			rlfc			rmfc			rsh1			rsh2			rsh3			rsh4			rlmal			rmmal			rcal			rtoe			rmt5			lth1			lth2			lth4			lth3			llfc			lmfc			llmal			lcal			lmt5			lsh1			lsh2			lsh3			lsh4			ltoe			SBIKE			LBIKE			RBIKE			
		X1	Y1	Z1	X2	Y2	Z2	X3	Y3	Z3	X4	Y4	Z4	X5	Y5	Z5	X6	Y6	Z6	X7	Y7	Z7	X8	Y8	Z8	X9	Y9	Z9	X10	Y10	Z10	X11	Y11	Z11	X12	Y12	Z12	X13	Y13	Z13	X14	Y14	Z14	X15	Y15	Z15	X16	Y16	Z16	X17	Y17	Z17	X18	Y18	Z18	X19	Y19	Z19	X20	Y20	Z20	X21	Y21	Z21	X22	Y22	Z22	X23	Y23	Z23	X24	Y24	Z24	X25	Y25	Z25	X26	Y26	Z26	X27	Y27	Z27	X28	Y28	Z28	X29	Y29	Z29	X30	Y30	Z30	X31	Y31	Z31	X32	Y32	Z32	X33	Y33	Z33	X34	Y34	Z34	X35	Y35	Z35	X36	Y36	Z36	X37	Y37	Z37	X38	Y38	Z38	X39	Y39	Z39	X40	Y40	Z40	X41	Y41	Z41	X42	Y42	Z42	X43	Y43	Z43	X44	Y44	Z44	X45	Y45	Z45	X46	Y46	Z46	X47	Y47	Z47	X48	Y48	Z48	X49	Y49	Z49	
1500	7.5000	429.794554	1245.301269	-60.002585	391.272964	1229.240024	-379.332989	392.331749	1287.016399	-202.682887	383.084438	1140.327570	-210.978930	427.254251	1007.391877	58.826971	598.175829	910.965414	-32.721922	401.320293	995.159989	-509.600982	590.683897	909.245968	-430.157653	-119.850716	1078.448393	-181.025847	22.408894	1126.630769	-342.177779	65.832287	1077.613922	-58.451045	67.915702	1043.075962	-334.666882	76.644387	1005.996093	-81.110438	-75.602138	1129.211191	-125.022100	-81.892262	1151.505495	-233.052733	-19.168660	967.751141	-12.832662	-60.739435	973.463650	-392.537208	85.588525	866.973824	-10.887254	166.020773	838.364999	-35.808859	218.967676	773.279457	-51.432601	184.301637	870.164102	-44.712363	294.388940	707.860227	-79.233462	262.030357	699.813983	-194.093027	195.963817	652.439531	-39.383397	139.133440	584.681756	-51.802725	58.775807	553.550130	-48.908639	155.501043	566.162596	-80.992058	-30.598743	498.885231	-59.031644	-2.249833	492.897187	-141.043190	-85.582632	513.238611	-106.083534	91.362150	345.536997	-100.999138	10.486467	376.079181	-39.086734	40.245014	869.401149	-415.858892	121.217865	837.834622	-410.502356	142.703150	866.984359	-406.089173	175.951813	767.984469	-400.796559	266.352751	702.854847	-390.217630	274.647488	701.267905	-273.423205	189.360377	333.251297	-387.847134	140.199114	293.489785	-343.687593	314.973601	262.862014	-407.275009	216.272991	591.049280	-415.463940	234.972932	505.767703	-406.191860	205.919703	421.721255	-402.357959	264.652413	506.568030	-382.167904	383.525584	308.290130	-356.655365	-217.724997	830.792361	-214.118728	-103.929937	80.474193	-418.363879	-103.932161	80.510054	-18.346029	
1501	7.5050	428.542356	1245.529498	-55.826397	393.839901	1229.028297	-377.137941	388.504604	1285.612004	-208.288006	383.561583	1140.083287	-208.455740	426.116822	1006.227068	59.434815	597.982707	911.007111	-32.343148	402.456358	995.321290	-509.309659	590.903375	909.254377	-429.905068	-119.711162	1077.252128	-183.508428	21.784885	1124.679602	-344.350497	64.541517	1077.408875	-59.824484	67.425980	1041.173684	-337.491647	76.827959	1005.932657	-83.231796	-76.354272	1128.187521	-128.338624	-81.683389	1150.285431	-236.047310	-17.828790	967.113131	-13.230985	-62.878282	970.459287	-394.898810	88.347143	871.165528	-13.162451	169.813068	844.882088	-37.587938	224.851641	781.311873	-51.746712	186.790618	877.311751	-47.299826	300.541677	716.770304	-80.207648	269.976642	706.815201	-195.200902	202.089189	661.491883	-39.665423	144.504319	594.062325	-51.699206	64.010036	563.330954	-48.730352	160.806151	575.152024	-80.838029	-25.933449	509.193323	-58.848233	0.953886	502.465320	-141.047185	-80.703009	523.974312	-105.891245	95.055087	355.130253	-101.109666	14.423703	386.053833	-39.151810	36.614183	864.198939	-417.005319	116.840599	830.879922	-411.170362	138.979432	859.745963	-407.391321	169.788703	760.048114	-400.070181	259.299074	695.171676	-389.310010	267.588831	692.503413	-273.550710	185.366668	323.127911	-387.196253	136.581410	283.524751	-342.760919	311.198055	252.919892	-407.007835	208.561617	582.064647	-414.658103	228.284741	496.908457	-405.834098	200.330050	412.424253	-401.746886	258.272332	497.863775	-382.168399	379.910469	298.097222	-356.440208	-217.765829	830.804776	-214.169877	-103.942134	80.493514	-418.362519	-103.938464	80.499525	-18.353675	
1502	7.5100	426.719832	1245.203818	-52.228375	396.498360	1228.722550	-374.872080	388.749851	1285.562529	-205.730320	384.048557	1139.824161	-205.798073	424.975863	1005.033471	60.168215	597.814417	911.064865	-31.923432	403.444161	995.509893	-509.189602	591.040150	909.264229	-429.639989	-119.403497	1076.440720	-186.198289	22.012187	1123.011572	-347.729958	63.079536	1077.386079	-61.237397	67.146439	1039.453305	-340.311818	76.984831	1006.120565	-84.621314	-76.656668	1128.008702	-131.338007	-81.228061	1149.574079	-238.987967	-16.602022	967.213734	-14.016052	-63.988878	969.140003	-396.878029	90.847253	875.765684	-15.278023	173.239587	851.836210	-38.964749	230.548978	789.848728	-52.579919	189.084542	884.689038	-49.780833	306.963821	726.295486	-80.630830	275.875956	713.585388	-196.431182	208.081429	670.806740	-40.048681	150.227059	603.456375	-51.736276	69.605383	573.187384	-48.676114	166.403446	584.514627	-80.702100	-20.879987	519.230460	-58.819431	5.836799	512.392745	-140.959706	-75.144466	534.424595	-105.408119	99.325531	364.610076	-101.180371	18.984542	396.012884	-39.120299	33.087532	860.846389	-418.332985	112.823243	825.473577	-412.505573	135.201158	853.350044	-408.552083	162.971738	752.903790	-399.469196	251.887998	687.305548	-388.215943	263.083602	684.293415	-272.633729	180.587915	313.490268	-386.368931	132.337242	273.876077	-341.730751	306.853754	243.076408	-406.744016	200.083398	573.132664	-413.760939	221.007816	488.284444	-405.524261	193.856213	403.509063	-401.034639	251.409819	489.488225	-382.316940	375.760442	288.094076	-356.302552	-217.762952	830.820853	-214.241205	-103.946902	80.495410	-418.368745	-103.954552	80.501069	-18.350148	
1503	7.5150	424.848538	1244.664971	-48.640729	399.183114	1228.326760	-372.394415	388.965697	1285.445565	-203.128324	384.542738	1139.551877	-203.013323	423.902911	1003.760302	61.065626	597.646066	911.037548	-31.519426	404.435508	995.727293	-509.231288	591.149764	909.252177	-429.391981	-119.059834	1076.170183	-189.053739	22.673862	1121.599525	-350.832338	61.691934	1077.510876	-62.567988	67.074400	1037.689932	-342.744533	77.193505	1006.593218	-85.926777	-77.353037	1127.920496	-134.286095	-80.531333	1149.279098	-242.050801	-15.893521	967.584377	-14.952541	-63.073530	969.259377	-398.660372	92.605619	880.504926	-17.595447	176.173998	859.039877	-39.560079	235.298539	798.665683	-52.837184	191.527805	893.052078	-51.202969	313.278556	735.937820	-81.223975	282.404067	721.702915	-197.289554	213.843468	680.464649	-40.400640	156.173779	613.194478	-51.833678	75.438218	583.069544	-48.689702	172.382581	593.867298	-80.698706	-15.243352	529.069644	-58.894951	11.341221	522.189837	-140.929121	-69.281121	544.460801	-105.562458	104.305581	373.876018	-101.324916	24.135527	405.634150	-39.192929	29.843663	858.836130	-419.777309	108.139254	820.972141	-413.010275	131.520054	847.892814	-409.249040	155.800040	746.673758	-399.169931	243.934022	679.318808	-387.380646	252.275452	674.498820	-273.674282	175.161283	303.779057	-384.787438	127.545955	264.581718	-340.629371	301.837773	233.674406	-406.499765	191.865248	564.364425	-413.579807	213.371604	479.651880	-405.265817	186.548099	394.710175	-399.808984	244.146232	481.113706	-382.427997	371.039527	278.190342	-356.120273	-217.742460	830.816480	-214.332873	-103.947499	80.469246	-418.382019	-103.944232	80.513517	-18.366259	
